<?xml version="1.0" encoding="utf-8" standalone="no"?>
<!DOCTYPE svg PUBLIC "-//W3C//DTD SVG 1.1//EN"
  "http://www.w3.org/Graphics/SVG/1.1/DTD/svg11.dtd">
<svg xmlns:xlink="http://www.w3.org/1999/xlink" width="345.6pt" height="302.4pt" viewBox="0 0 345.6 302.4" xmlns="http://www.w3.org/2000/svg" version="1.1">
 <metadata>
  <rdf:RDF xmlns:dc="http://purl.org/dc/elements/1.1/" xmlns:cc="http://creativecommons.org/ns#" xmlns:rdf="http://www.w3.org/1999/02/22-rdf-syntax-ns#">
   <cc:Work>
    <dc:type rdf:resource="http://purl.org/dc/dcmitype/StillImage"/>
    <dc:format>image/svg+xml</dc:format>
   </cc:Work>
  </rdf:RDF>
 </metadata>
 <defs>
  <style type="text/css">*{stroke-linejoin: round; stroke-linecap: butt}</style>
 </defs>
 <g id="figure_1">
  <g id="patch_1">
   <path d="M 0 302.4 
L 345.6 302.4 
L 345.6 0 
L 0 0 
L 0 302.4 
z
" style="fill: none"/>
  </g>
  <g id="axes_1">
   <g id="patch_2">
    <path d="M 44.2 138.389063 
L 331.92 138.389063 
L 331.92 22.56 
L 44.2 22.56 
L 44.2 138.389063 
z
" style="fill: none"/>
   </g>
   <g id="matplotlib.axis_1">
    <g id="xtick_1">
     <g id="line2d_1">
      <path d="M 101.282725 138.389063 
L 101.282725 22.56 
" clip-path="url(#p55f981faa4)" style="fill: none; stroke: #898781; stroke-opacity: 0.301961; stroke-width: 0.6; stroke-linecap: square"/>
     </g>
     <g id="line2d_2">
      <defs>
       <path id="m01e5ee31e0" d="M 0 0 
L 0 3.5 
" style="stroke: #898781; stroke-width: 0.8"/>
      </defs>
      <g>
       <use xlink:href="#m01e5ee31e0" x="101.282725" y="138.389063" style="fill: #898781; stroke: #898781; stroke-width: 0.8"/>
      </g>
     </g>
    </g>
    <g id="xtick_2">
     <g id="line2d_3">
      <path d="M 158.942044 138.389063 
L 158.942044 22.56 
" clip-path="url(#p55f981faa4)" style="fill: none; stroke: #898781; stroke-opacity: 0.301961; stroke-width: 0.6; stroke-linecap: square"/>
     </g>
     <g id="line2d_4">
      <g>
       <use xlink:href="#m01e5ee31e0" x="158.942044" y="138.389063" style="fill: #898781; stroke: #898781; stroke-width: 0.8"/>
      </g>
     </g>
    </g>
    <g id="xtick_3">
     <g id="line2d_5">
      <path d="M 216.601363 138.389063 
L 216.601363 22.56 
" clip-path="url(#p55f981faa4)" style="fill: none; stroke: #898781; stroke-opacity: 0.301961; stroke-width: 0.6; stroke-linecap: square"/>
     </g>
     <g id="line2d_6">
      <g>
       <use xlink:href="#m01e5ee31e0" x="216.601363" y="138.389063" style="fill: #898781; stroke: #898781; stroke-width: 0.8"/>
      </g>
     </g>
    </g>
    <g id="xtick_4">
     <g id="line2d_7">
      <path d="M 274.260681 138.389063 
L 274.260681 22.56 
" clip-path="url(#p55f981faa4)" style="fill: none; stroke: #898781; stroke-opacity: 0.301961; stroke-width: 0.6; stroke-linecap: square"/>
     </g>
     <g id="line2d_8">
      <g>
       <use xlink:href="#m01e5ee31e0" x="274.260681" y="138.389063" style="fill: #898781; stroke: #898781; stroke-width: 0.8"/>
      </g>
     </g>
    </g>
    <g id="xtick_5">
     <g id="line2d_9">
      <path d="M 331.92 138.389063 
L 331.92 22.56 
" clip-path="url(#p55f981faa4)" style="fill: none; stroke: #898781; stroke-opacity: 0.301961; stroke-width: 0.6; stroke-linecap: square"/>
     </g>
     <g id="line2d_10">
      <g>
       <use xlink:href="#m01e5ee31e0" x="331.92" y="138.389063" style="fill: #898781; stroke: #898781; stroke-width: 0.8"/>
      </g>
     </g>
    </g>
   </g>
   <g id="matplotlib.axis_2">
    <g id="ytick_1">
     <g id="line2d_11">
      <path d="M 44.2 135.800957 
L 331.92 135.800957 
" clip-path="url(#p55f981faa4)" style="fill: none; stroke: #898781; stroke-opacity: 0.301961; stroke-width: 0.6; stroke-linecap: square"/>
     </g>
     <g id="line2d_12">
      <defs>
       <path id="m1be7251ce9" d="M 0 0 
L -3.5 0 
" style="stroke: #898781; stroke-width: 0.8"/>
      </defs>
      <g>
       <use xlink:href="#m1be7251ce9" x="44.2" y="135.800957" style="fill: #898781; stroke: #898781; stroke-width: 0.8"/>
      </g>
     </g>
     <g id="text_1">
      <text style="font-size: 8px; font-family: 'DejaVu Sans', 'Bitstream Vera Sans', 'Computer Modern Sans Serif', 'Lucida Grande', 'Verdana', 'Geneva', 'Lucid', 'Arial', 'Helvetica', 'Avant Garde', sans-serif; text-anchor: end; fill: #898781" x="37.2" y="138.84002" transform="rotate(-0 37.2 138.84002)">−10</text>
     </g>
    </g>
    <g id="ytick_2">
     <g id="line2d_13">
      <path d="M 44.2 113.993759 
L 331.92 113.993759 
" clip-path="url(#p55f981faa4)" style="fill: none; stroke: #898781; stroke-opacity: 0.301961; stroke-width: 0.6; stroke-linecap: square"/>
     </g>
     <g id="line2d_14">
      <g>
       <use xlink:href="#m1be7251ce9" x="44.2" y="113.993759" style="fill: #898781; stroke: #898781; stroke-width: 0.8"/>
      </g>
     </g>
     <g id="text_2">
      <text style="font-size: 8px; font-family: 'DejaVu Sans', 'Bitstream Vera Sans', 'Computer Modern Sans Serif', 'Lucida Grande', 'Verdana', 'Geneva', 'Lucid', 'Arial', 'Helvetica', 'Avant Garde', sans-serif; text-anchor: end; fill: #898781" x="37.2" y="117.032822" transform="rotate(-0 37.2 117.032822)">−5</text>
     </g>
    </g>
    <g id="ytick_3">
     <g id="line2d_15">
      <path d="M 44.2 92.186561 
L 331.92 92.186561 
" clip-path="url(#p55f981faa4)" style="fill: none; stroke: #898781; stroke-opacity: 0.301961; stroke-width: 0.6; stroke-linecap: square"/>
     </g>
     <g id="line2d_16">
      <g>
       <use xlink:href="#m1be7251ce9" x="44.2" y="92.186561" style="fill: #898781; stroke: #898781; stroke-width: 0.8"/>
      </g>
     </g>
     <g id="text_3">
      <text style="font-size: 8px; font-family: 'DejaVu Sans', 'Bitstream Vera Sans', 'Computer Modern Sans Serif', 'Lucida Grande', 'Verdana', 'Geneva', 'Lucid', 'Arial', 'Helvetica', 'Avant Garde', sans-serif; text-anchor: end; fill: #898781" x="37.2" y="95.225624" transform="rotate(-0 37.2 95.225624)">0</text>
     </g>
    </g>
    <g id="ytick_4">
     <g id="line2d_17">
      <path d="M 44.2 70.379364 
L 331.92 70.379364 
" clip-path="url(#p55f981faa4)" style="fill: none; stroke: #898781; stroke-opacity: 0.301961; stroke-width: 0.6; stroke-linecap: square"/>
     </g>
     <g id="line2d_18">
      <g>
       <use xlink:href="#m1be7251ce9" x="44.2" y="70.379364" style="fill: #898781; stroke: #898781; stroke-width: 0.8"/>
      </g>
     </g>
     <g id="text_4">
      <text style="font-size: 8px; font-family: 'DejaVu Sans', 'Bitstream Vera Sans', 'Computer Modern Sans Serif', 'Lucida Grande', 'Verdana', 'Geneva', 'Lucid', 'Arial', 'Helvetica', 'Avant Garde', sans-serif; text-anchor: end; fill: #898781" x="37.2" y="73.418426" transform="rotate(-0 37.2 73.418426)">5</text>
     </g>
    </g>
    <g id="ytick_5">
     <g id="line2d_19">
      <path d="M 44.2 48.572166 
L 331.92 48.572166 
" clip-path="url(#p55f981faa4)" style="fill: none; stroke: #898781; stroke-opacity: 0.301961; stroke-width: 0.6; stroke-linecap: square"/>
     </g>
     <g id="line2d_20">
      <g>
       <use xlink:href="#m1be7251ce9" x="44.2" y="48.572166" style="fill: #898781; stroke: #898781; stroke-width: 0.8"/>
      </g>
     </g>
     <g id="text_5">
      <text style="font-size: 8px; font-family: 'DejaVu Sans', 'Bitstream Vera Sans', 'Computer Modern Sans Serif', 'Lucida Grande', 'Verdana', 'Geneva', 'Lucid', 'Arial', 'Helvetica', 'Avant Garde', sans-serif; text-anchor: end; fill: #898781" x="37.2" y="51.611228" transform="rotate(-0 37.2 51.611228)">10</text>
     </g>
    </g>
    <g id="ytick_6">
     <g id="line2d_21">
      <path d="M 44.2 26.764968 
L 331.92 26.764968 
" clip-path="url(#p55f981faa4)" style="fill: none; stroke: #898781; stroke-opacity: 0.301961; stroke-width: 0.6; stroke-linecap: square"/>
     </g>
     <g id="line2d_22">
      <g>
       <use xlink:href="#m1be7251ce9" x="44.2" y="26.764968" style="fill: #898781; stroke: #898781; stroke-width: 0.8"/>
      </g>
     </g>
     <g id="text_6">
      <text style="font-size: 8px; font-family: 'DejaVu Sans', 'Bitstream Vera Sans', 'Computer Modern Sans Serif', 'Lucida Grande', 'Verdana', 'Geneva', 'Lucid', 'Arial', 'Helvetica', 'Avant Garde', sans-serif; text-anchor: end; fill: #898781" x="37.2" y="29.804031" transform="rotate(-0 37.2 29.804031)">15</text>
     </g>
    </g>
    <g id="text_7">
     <text style="font-size: 8px; font-family: 'DejaVu Sans', 'Bitstream Vera Sans', 'Computer Modern Sans Serif', 'Lucida Grande', 'Verdana', 'Geneva', 'Lucid', 'Arial', 'Helvetica', 'Avant Garde', sans-serif; text-anchor: middle; fill: #898781" x="14.394375" y="80.474531" transform="rotate(-90 14.394375 80.474531)">nH</text>
    </g>
   </g>
   <g id="line2d_23">
    <path d="M 44.2 70.642691 
L 44.218198 70.645403 
L 44.23697 70.628552 
L 44.256334 70.632851 
L 44.27631 70.644019 
L 44.296916 70.623241 
L 44.318173 70.644436 
L 44.3401 70.636936 
L 44.36272 70.616906 
L 44.386053 70.621706 
L 44.410123 70.620588 
L 44.434952 70.636544 
L 44.460565 70.611309 
L 44.486987 70.615022 
L 44.514242 70.613603 
L 44.542358 70.60851 
L 44.57136 70.611501 
L 44.601279 70.59864 
L 44.632141 70.612665 
L 44.663978 70.600667 
L 44.696819 70.598803 
L 44.730697 70.590861 
L 44.765644 70.589035 
L 44.801694 70.586198 
L 44.838881 70.581011 
L 44.877243 70.569704 
L 44.916815 70.566677 
L 44.957636 70.554972 
L 44.999745 70.547261 
L 45.043184 70.56032 
L 45.087993 70.558829 
L 45.134217 70.556107 
L 45.181899 70.554332 
L 45.231087 70.53973 
L 45.281826 70.531566 
L 45.334167 70.532137 
L 45.388161 70.527815 
L 45.443858 70.519195 
L 45.501313 70.520382 
L 45.560581 70.517184 
L 45.62172 70.519615 
L 45.684788 70.511315 
L 45.749847 70.510063 
L 45.816959 70.505143 
L 45.88619 70.501945 
L 45.957605 70.49867 
L 46.031274 70.49023 
L 46.107269 70.490461 
L 46.185662 70.486323 
L 46.266528 70.476679 
L 46.349948 70.472054 
L 46.436 70.465212 
L 46.524767 70.459283 
L 46.616337 70.458942 
L 46.710796 70.452544 
L 46.808237 70.449468 
L 46.908753 70.441712 
L 47.012441 70.434404 
L 47.119402 70.42766 
L 47.229738 70.427074 
L 47.343557 70.420298 
L 47.460968 70.416379 
L 47.582085 70.409253 
L 47.707024 70.403723 
L 47.835907 70.404641 
L 47.968857 70.401195 
L 48.106003 70.395887 
L 48.247477 70.390921 
L 48.393417 70.383236 
L 48.543963 70.381652 
L 48.699259 70.373063 
L 48.859458 70.362423 
L 49.024712 70.357627 
L 49.195182 70.352414 
L 49.371032 70.34133 
L 49.552431 70.334959 
L 49.739557 70.328105 
L 49.932587 70.316434 
L 50.13171 70.310418 
L 50.337118 70.298464 
L 50.549008 70.287792 
L 50.767586 70.278002 
L 50.993063 70.263691 
L 51.225655 70.251338 
L 51.465589 70.237244 
L 51.713095 70.221836 
L 51.968412 70.207079 
L 52.231787 70.187308 
L 52.503475 70.169521 
L 52.783738 70.149621 
L 53.072845 70.129724 
L 53.371078 70.103115 
L 53.678722 70.08 
L 53.996077 70.054498 
L 54.323447 70.023727 
L 54.661149 69.990787 
L 55.00951 69.957794 
L 55.368865 69.923054 
L 55.739561 69.883408 
L 56.121958 69.838901 
L 56.516422 69.796007 
L 56.923337 69.746081 
L 57.343094 69.692606 
L 57.776099 69.636113 
L 58.22277 69.572961 
L 58.683538 69.506876 
L 59.158849 69.43416 
L 59.64916 69.357598 
L 60.154947 69.274573 
L 60.676696 69.183678 
L 61.214912 69.086397 
L 61.770115 68.981739 
L 62.342841 68.868388 
L 62.933642 68.745791 
L 63.543089 68.610849 
L 64.171771 68.466021 
L 64.820295 68.307281 
L 65.489287 68.13585 
L 66.179392 67.949859 
L 66.891278 67.758699 
L 67.625632 67.541678 
L 68.383163 67.303661 
L 69.164602 67.046677 
L 69.970703 66.761924 
L 70.802246 66.454034 
L 71.660033 66.115251 
L 72.544893 65.742197 
L 73.45768 65.333581 
L 74.399275 64.87847 
L 75.370587 64.381577 
L 76.372555 63.829594 
L 77.406146 63.211435 
L 78.472358 62.527518 
L 79.57222 61.751146 
L 80.706795 60.87836 
L 81.877178 59.897119 
L 83.0845 58.774418 
L 84.329925 57.484698 
L 85.614657 55.995855 
L 86.939937 54.250021 
L 88.307043 52.182124 
L 89.717297 49.71324 
L 91.172059 46.722739 
L 92.672735 43.021174 
L 94.220773 38.324565 
L 95.817669 32.212422 
L 97.464964 23.99075 
L 99.164249 12.409311 
L 100.524216 -1 
M 106.872537 -1 
L 108.499802 254.444213 
L 110.547356 238.350613 
L 112.659532 192.647245 
L 114.838371 165.289618 
L 117.085975 148.231082 
L 119.404516 136.840606 
L 121.796232 128.736641 
L 124.263433 122.713922 
L 126.8085 118.080202 
L 129.433892 114.409139 
L 132.142144 111.433261 
L 134.93587 108.98872 
L 137.817769 106.940215 
L 140.790623 105.203475 
L 143.857302 103.715856 
L 147.020769 102.426303 
L 150.284077 101.296168 
L 153.650378 100.302932 
L 157.122923 99.462319 
L 160.705064 98.688041 
L 164.40026 97.992784 
L 168.21208 97.370618 
L 172.144204 96.810144 
L 176.200429 96.29965 
L 180.384672 95.838741 
L 184.700973 95.421011 
L 189.153501 95.045523 
L 193.746554 94.705413 
L 198.484567 94.395591 
L 203.372117 94.105947 
L 208.413921 93.834322 
L 213.61485 93.58329 
L 218.979924 93.350852 
L 224.514324 93.1361 
L 230.223394 92.937115 
L 236.112648 92.750713 
L 242.187771 92.574899 
L 248.454631 92.409023 
L 254.919278 92.250542 
L 261.587954 92.099962 
L 268.4671 91.95558 
L 275.563357 91.81707 
L 282.883579 91.68184 
L 290.434832 91.547726 
L 298.22441 91.411361 
L 306.259833 91.270798 
L 314.548861 91.126065 
L 323.099498 90.968111 
L 331.92 90.791181 
" clip-path="url(#p55f981faa4)" style="fill: none; stroke: #3987e5; stroke-width: 1.5; stroke-linecap: square"/>
   </g>
   <g id="patch_3">
    <path d="M 44.2 138.389063 
L 44.2 22.56 
" style="fill: none; stroke: #898781; stroke-width: 0.8; stroke-linejoin: miter; stroke-linecap: square"/>
   </g>
   <g id="patch_4">
    <path d="M 331.92 138.389063 
L 331.92 22.56 
" style="fill: none; stroke: #898781; stroke-width: 0.8; stroke-linejoin: miter; stroke-linecap: square"/>
   </g>
   <g id="patch_5">
    <path d="M 44.2 138.389063 
L 331.92 138.389063 
" style="fill: none; stroke: #898781; stroke-width: 0.8; stroke-linejoin: miter; stroke-linecap: square"/>
   </g>
   <g id="patch_6">
    <path d="M 44.2 22.56 
L 331.92 22.56 
" style="fill: none; stroke: #898781; stroke-width: 0.8; stroke-linejoin: miter; stroke-linecap: square"/>
   </g>
   <g id="text_8">
    <text style="font-size: 9px; font-family: 'DejaVu Sans', 'Bitstream Vera Sans', 'Computer Modern Sans Serif', 'Lucida Grande', 'Verdana', 'Geneva', 'Lucid', 'Arial', 'Helvetica', 'Avant Garde', sans-serif; text-anchor: start; fill: #898781" x="44.2" y="16.56" transform="rotate(-0 44.2 16.56)">measured</text>
   </g>
   <g id="legend_1">
    <g id="line2d_24">
     <path d="M 280.651563 31.728906 
L 287.651563 31.728906 
L 294.651563 31.728906 
" style="fill: none; stroke: #3987e5; stroke-width: 1.5; stroke-linecap: square"/>
    </g>
    <g id="text_9">
     <text style="font-size: 7px; font-family: 'DejaVu Sans', 'Bitstream Vera Sans', 'Computer Modern Sans Serif', 'Lucida Grande', 'Verdana', 'Geneva', 'Lucid', 'Arial', 'Helvetica', 'Avant Garde', sans-serif; text-anchor: start; fill: #898781" x="300.251563" y="34.178906" transform="rotate(-0 300.251563 34.178906)">L(Zdiff)</text>
    </g>
   </g>
  </g>
  <g id="axes_2">
   <g id="patch_7">
    <path d="M 44.2 266.358125 
L 331.92 266.358125 
L 331.92 150.529063 
L 44.2 150.529063 
L 44.2 266.358125 
z
" style="fill: none"/>
   </g>
   <g id="matplotlib.axis_3">
    <g id="xtick_6">
     <g id="line2d_25">
      <path d="M 101.282725 266.358125 
L 101.282725 150.529063 
" clip-path="url(#p61241e850b)" style="fill: none; stroke: #898781; stroke-opacity: 0.301961; stroke-width: 0.6; stroke-linecap: square"/>
     </g>
     <g id="line2d_26">
      <g>
       <use xlink:href="#m01e5ee31e0" x="101.282725" y="266.358125" style="fill: #898781; stroke: #898781; stroke-width: 0.8"/>
      </g>
     </g>
     <g id="text_10">
      <text style="font-size: 8px; font-family: 'DejaVu Sans', 'Bitstream Vera Sans', 'Computer Modern Sans Serif', 'Lucida Grande', 'Verdana', 'Geneva', 'Lucid', 'Arial', 'Helvetica', 'Avant Garde', sans-serif; text-anchor: middle; fill: #898781" x="101.282725" y="279.43625" transform="rotate(-0 101.282725 279.43625)">10</text>
     </g>
    </g>
    <g id="xtick_7">
     <g id="line2d_27">
      <path d="M 158.942044 266.358125 
L 158.942044 150.529063 
" clip-path="url(#p61241e850b)" style="fill: none; stroke: #898781; stroke-opacity: 0.301961; stroke-width: 0.6; stroke-linecap: square"/>
     </g>
     <g id="line2d_28">
      <g>
       <use xlink:href="#m01e5ee31e0" x="158.942044" y="266.358125" style="fill: #898781; stroke: #898781; stroke-width: 0.8"/>
      </g>
     </g>
     <g id="text_11">
      <text style="font-size: 8px; font-family: 'DejaVu Sans', 'Bitstream Vera Sans', 'Computer Modern Sans Serif', 'Lucida Grande', 'Verdana', 'Geneva', 'Lucid', 'Arial', 'Helvetica', 'Avant Garde', sans-serif; text-anchor: middle; fill: #898781" x="158.942044" y="279.43625" transform="rotate(-0 158.942044 279.43625)">20</text>
     </g>
    </g>
    <g id="xtick_8">
     <g id="line2d_29">
      <path d="M 216.601363 266.358125 
L 216.601363 150.529063 
" clip-path="url(#p61241e850b)" style="fill: none; stroke: #898781; stroke-opacity: 0.301961; stroke-width: 0.6; stroke-linecap: square"/>
     </g>
     <g id="line2d_30">
      <g>
       <use xlink:href="#m01e5ee31e0" x="216.601363" y="266.358125" style="fill: #898781; stroke: #898781; stroke-width: 0.8"/>
      </g>
     </g>
     <g id="text_12">
      <text style="font-size: 8px; font-family: 'DejaVu Sans', 'Bitstream Vera Sans', 'Computer Modern Sans Serif', 'Lucida Grande', 'Verdana', 'Geneva', 'Lucid', 'Arial', 'Helvetica', 'Avant Garde', sans-serif; text-anchor: middle; fill: #898781" x="216.601363" y="279.43625" transform="rotate(-0 216.601363 279.43625)">30</text>
     </g>
    </g>
    <g id="xtick_9">
     <g id="line2d_31">
      <path d="M 274.260681 266.358125 
L 274.260681 150.529063 
" clip-path="url(#p61241e850b)" style="fill: none; stroke: #898781; stroke-opacity: 0.301961; stroke-width: 0.6; stroke-linecap: square"/>
     </g>
     <g id="line2d_32">
      <g>
       <use xlink:href="#m01e5ee31e0" x="274.260681" y="266.358125" style="fill: #898781; stroke: #898781; stroke-width: 0.8"/>
      </g>
     </g>
     <g id="text_13">
      <text style="font-size: 8px; font-family: 'DejaVu Sans', 'Bitstream Vera Sans', 'Computer Modern Sans Serif', 'Lucida Grande', 'Verdana', 'Geneva', 'Lucid', 'Arial', 'Helvetica', 'Avant Garde', sans-serif; text-anchor: middle; fill: #898781" x="274.260681" y="279.43625" transform="rotate(-0 274.260681 279.43625)">40</text>
     </g>
    </g>
    <g id="xtick_10">
     <g id="line2d_33">
      <path d="M 331.92 266.358125 
L 331.92 150.529063 
" clip-path="url(#p61241e850b)" style="fill: none; stroke: #898781; stroke-opacity: 0.301961; stroke-width: 0.6; stroke-linecap: square"/>
     </g>
     <g id="line2d_34">
      <g>
       <use xlink:href="#m01e5ee31e0" x="331.92" y="266.358125" style="fill: #898781; stroke: #898781; stroke-width: 0.8"/>
      </g>
     </g>
     <g id="text_14">
      <text style="font-size: 8px; font-family: 'DejaVu Sans', 'Bitstream Vera Sans', 'Computer Modern Sans Serif', 'Lucida Grande', 'Verdana', 'Geneva', 'Lucid', 'Arial', 'Helvetica', 'Avant Garde', sans-serif; text-anchor: middle; fill: #898781" x="331.92" y="279.43625" transform="rotate(-0 331.92 279.43625)">50</text>
     </g>
    </g>
    <g id="text_15">
     <text style="font-size: 8px; font-family: 'DejaVu Sans', 'Bitstream Vera Sans', 'Computer Modern Sans Serif', 'Lucida Grande', 'Verdana', 'Geneva', 'Lucid', 'Arial', 'Helvetica', 'Avant Garde', sans-serif; text-anchor: middle; fill: #898781" x="188.06" y="291.436875" transform="rotate(-0 188.06 291.436875)">f [GHz]</text>
    </g>
   </g>
   <g id="matplotlib.axis_4">
    <g id="ytick_7">
     <g id="line2d_35">
      <path d="M 44.2 262.515056 
L 331.92 262.515056 
" clip-path="url(#p61241e850b)" style="fill: none; stroke: #898781; stroke-opacity: 0.301961; stroke-width: 0.6; stroke-linecap: square"/>
     </g>
     <g id="line2d_36">
      <g>
       <use xlink:href="#m1be7251ce9" x="44.2" y="262.515056" style="fill: #898781; stroke: #898781; stroke-width: 0.8"/>
      </g>
     </g>
     <g id="text_16">
      <text style="font-size: 8px; font-family: 'DejaVu Sans', 'Bitstream Vera Sans', 'Computer Modern Sans Serif', 'Lucida Grande', 'Verdana', 'Geneva', 'Lucid', 'Arial', 'Helvetica', 'Avant Garde', sans-serif; text-anchor: end; fill: #898781" x="37.2" y="265.554118" transform="rotate(-0 37.2 265.554118)">−15</text>
     </g>
    </g>
    <g id="ytick_8">
     <g id="line2d_37">
      <path d="M 44.2 245.907439 
L 331.92 245.907439 
" clip-path="url(#p61241e850b)" style="fill: none; stroke: #898781; stroke-opacity: 0.301961; stroke-width: 0.6; stroke-linecap: square"/>
     </g>
     <g id="line2d_38">
      <g>
       <use xlink:href="#m1be7251ce9" x="44.2" y="245.907439" style="fill: #898781; stroke: #898781; stroke-width: 0.8"/>
      </g>
     </g>
     <g id="text_17">
      <text style="font-size: 8px; font-family: 'DejaVu Sans', 'Bitstream Vera Sans', 'Computer Modern Sans Serif', 'Lucida Grande', 'Verdana', 'Geneva', 'Lucid', 'Arial', 'Helvetica', 'Avant Garde', sans-serif; text-anchor: end; fill: #898781" x="37.2" y="248.946501" transform="rotate(-0 37.2 248.946501)">−10</text>
     </g>
    </g>
    <g id="ytick_9">
     <g id="line2d_39">
      <path d="M 44.2 229.299822 
L 331.92 229.299822 
" clip-path="url(#p61241e850b)" style="fill: none; stroke: #898781; stroke-opacity: 0.301961; stroke-width: 0.6; stroke-linecap: square"/>
     </g>
     <g id="line2d_40">
      <g>
       <use xlink:href="#m1be7251ce9" x="44.2" y="229.299822" style="fill: #898781; stroke: #898781; stroke-width: 0.8"/>
      </g>
     </g>
     <g id="text_18">
      <text style="font-size: 8px; font-family: 'DejaVu Sans', 'Bitstream Vera Sans', 'Computer Modern Sans Serif', 'Lucida Grande', 'Verdana', 'Geneva', 'Lucid', 'Arial', 'Helvetica', 'Avant Garde', sans-serif; text-anchor: end; fill: #898781" x="37.2" y="232.338884" transform="rotate(-0 37.2 232.338884)">−5</text>
     </g>
    </g>
    <g id="ytick_10">
     <g id="line2d_41">
      <path d="M 44.2 212.692205 
L 331.92 212.692205 
" clip-path="url(#p61241e850b)" style="fill: none; stroke: #898781; stroke-opacity: 0.301961; stroke-width: 0.6; stroke-linecap: square"/>
     </g>
     <g id="line2d_42">
      <g>
       <use xlink:href="#m1be7251ce9" x="44.2" y="212.692205" style="fill: #898781; stroke: #898781; stroke-width: 0.8"/>
      </g>
     </g>
     <g id="text_19">
      <text style="font-size: 8px; font-family: 'DejaVu Sans', 'Bitstream Vera Sans', 'Computer Modern Sans Serif', 'Lucida Grande', 'Verdana', 'Geneva', 'Lucid', 'Arial', 'Helvetica', 'Avant Garde', sans-serif; text-anchor: end; fill: #898781" x="37.2" y="215.731267" transform="rotate(-0 37.2 215.731267)">0</text>
     </g>
    </g>
    <g id="ytick_11">
     <g id="line2d_43">
      <path d="M 44.2 196.084588 
L 331.92 196.084588 
" clip-path="url(#p61241e850b)" style="fill: none; stroke: #898781; stroke-opacity: 0.301961; stroke-width: 0.6; stroke-linecap: square"/>
     </g>
     <g id="line2d_44">
      <g>
       <use xlink:href="#m1be7251ce9" x="44.2" y="196.084588" style="fill: #898781; stroke: #898781; stroke-width: 0.8"/>
      </g>
     </g>
     <g id="text_20">
      <text style="font-size: 8px; font-family: 'DejaVu Sans', 'Bitstream Vera Sans', 'Computer Modern Sans Serif', 'Lucida Grande', 'Verdana', 'Geneva', 'Lucid', 'Arial', 'Helvetica', 'Avant Garde', sans-serif; text-anchor: end; fill: #898781" x="37.2" y="199.123651" transform="rotate(-0 37.2 199.123651)">5</text>
     </g>
    </g>
    <g id="ytick_12">
     <g id="line2d_45">
      <path d="M 44.2 179.476971 
L 331.92 179.476971 
" clip-path="url(#p61241e850b)" style="fill: none; stroke: #898781; stroke-opacity: 0.301961; stroke-width: 0.6; stroke-linecap: square"/>
     </g>
     <g id="line2d_46">
      <g>
       <use xlink:href="#m1be7251ce9" x="44.2" y="179.476971" style="fill: #898781; stroke: #898781; stroke-width: 0.8"/>
      </g>
     </g>
     <g id="text_21">
      <text style="font-size: 8px; font-family: 'DejaVu Sans', 'Bitstream Vera Sans', 'Computer Modern Sans Serif', 'Lucida Grande', 'Verdana', 'Geneva', 'Lucid', 'Arial', 'Helvetica', 'Avant Garde', sans-serif; text-anchor: end; fill: #898781" x="37.2" y="182.516034" transform="rotate(-0 37.2 182.516034)">10</text>
     </g>
    </g>
    <g id="ytick_13">
     <g id="line2d_47">
      <path d="M 44.2 162.869354 
L 331.92 162.869354 
" clip-path="url(#p61241e850b)" style="fill: none; stroke: #898781; stroke-opacity: 0.301961; stroke-width: 0.6; stroke-linecap: square"/>
     </g>
     <g id="line2d_48">
      <g>
       <use xlink:href="#m1be7251ce9" x="44.2" y="162.869354" style="fill: #898781; stroke: #898781; stroke-width: 0.8"/>
      </g>
     </g>
     <g id="text_22">
      <text style="font-size: 8px; font-family: 'DejaVu Sans', 'Bitstream Vera Sans', 'Computer Modern Sans Serif', 'Lucida Grande', 'Verdana', 'Geneva', 'Lucid', 'Arial', 'Helvetica', 'Avant Garde', sans-serif; text-anchor: end; fill: #898781" x="37.2" y="165.908417" transform="rotate(-0 37.2 165.908417)">15</text>
     </g>
    </g>
   </g>
   <g id="line2d_49">
    <path d="M 44.2 210.42478 
L 44.218198 210.356954 
L 44.23697 210.278736 
L 44.256334 210.208 
L 44.27631 210.127362 
L 44.296916 210.043276 
L 44.318173 209.962138 
L 44.3401 209.874043 
L 44.36272 209.783373 
L 44.386053 209.689999 
L 44.410123 209.596464 
L 44.434952 209.501558 
L 44.460565 209.396358 
L 44.486987 209.292279 
L 44.514242 209.18377 
L 44.542358 209.075165 
L 44.57136 208.956028 
L 44.601279 208.835178 
L 44.632141 208.718663 
L 44.663978 208.589944 
L 44.696819 208.453082 
L 44.730697 208.321354 
L 44.765644 208.182796 
L 44.801694 208.043432 
L 44.838881 207.894839 
L 44.877243 207.741427 
L 44.916815 207.584717 
L 44.957636 207.417703 
L 44.999745 207.242936 
L 45.043184 207.082193 
L 45.087993 206.898785 
L 45.134217 206.727763 
L 45.181899 206.529828 
L 45.231087 206.332769 
L 45.281826 206.129909 
L 45.334167 205.923855 
L 45.388161 205.707043 
L 45.443858 205.49137 
L 45.501313 205.26136 
L 45.560581 205.031674 
L 45.62172 204.793521 
L 45.684788 204.53013 
L 45.749847 204.28116 
L 45.816959 204.019934 
L 45.88619 203.759479 
L 45.957605 203.476604 
L 46.031274 203.191617 
L 46.107269 202.8999 
L 46.185662 202.588515 
L 46.266528 202.273878 
L 46.349948 201.953642 
L 46.436 201.624691 
L 46.524767 201.290621 
L 46.616337 200.920303 
L 46.710796 200.573436 
L 46.808237 200.214283 
L 46.908753 199.84453 
L 47.012441 199.433483 
L 47.119402 199.043117 
L 47.229738 198.644671 
L 47.343557 198.233645 
L 47.460968 197.795251 
L 47.582085 197.354762 
L 47.707024 196.933528 
L 47.835907 196.462121 
L 47.968857 195.977363 
L 48.106003 195.513956 
L 48.247477 194.997291 
L 48.393417 194.508148 
L 48.543963 193.991419 
L 48.699259 193.469094 
L 48.859458 192.929438 
L 49.024712 192.399571 
L 49.195182 191.804924 
L 49.371032 191.246042 
L 49.552431 190.664336 
L 49.739557 190.078137 
L 49.932587 189.460207 
L 50.13171 188.848537 
L 50.337118 188.216995 
L 50.549008 187.586903 
L 50.767586 186.926958 
L 50.993063 186.289746 
L 51.225655 185.596042 
L 51.465589 184.918884 
L 51.713095 184.240573 
L 51.968412 183.573699 
L 52.231787 182.857892 
L 52.503475 182.154429 
L 52.783738 181.473354 
L 53.072845 180.748607 
L 53.371078 180.027068 
L 53.678722 179.236266 
L 53.996077 178.521189 
L 54.323447 177.753275 
L 54.661149 176.967706 
L 55.00951 176.219905 
L 55.368865 175.470317 
L 55.739561 174.67699 
L 56.121958 173.967807 
L 56.516422 173.127571 
L 56.923337 172.35356 
L 57.343094 171.577847 
L 57.776099 170.821856 
L 58.22277 170.123001 
L 58.683538 169.304609 
L 59.158849 168.588363 
L 59.64916 167.883455 
L 60.154947 167.157347 
L 60.676696 166.497355 
L 61.214912 165.82397 
L 61.770115 165.065405 
L 62.342841 164.40271 
L 62.933642 163.867786 
L 63.543089 163.136658 
L 64.171771 162.624816 
L 64.820295 162.078941 
L 65.489287 161.629604 
L 66.179392 161.363945 
L 66.891278 161.063058 
L 67.625632 160.619651 
L 68.383163 160.181484 
L 69.164602 159.862666 
L 69.970703 159.8295 
L 70.802246 159.69163 
L 71.660033 159.700897 
L 72.544893 159.901483 
L 73.45768 160.12545 
L 74.399275 160.374877 
L 75.370587 160.829624 
L 76.372555 161.489811 
L 77.406146 162.328741 
L 78.472358 163.162838 
L 79.57222 164.116144 
L 80.706795 165.276972 
L 81.877178 166.606478 
L 83.0845 168.223965 
L 84.329925 169.967376 
L 85.614657 171.86605 
L 86.939937 173.873446 
L 88.307043 176.027424 
L 89.717297 178.392354 
L 91.172059 181.039258 
L 92.672735 183.787374 
L 94.220773 186.524876 
L 95.817669 189.666318 
L 97.464964 192.939683 
L 99.164249 196.312318 
L 100.917165 199.845671 
L 102.725404 203.505525 
L 104.590713 207.206935 
L 106.514893 210.999022 
L 108.499802 214.833463 
L 110.547356 218.671468 
L 112.659532 222.500573 
L 114.838371 226.2454 
L 117.085975 229.89155 
L 119.404516 233.437943 
L 121.796232 236.875558 
L 124.263433 240.023666 
L 126.8085 243.037315 
L 129.433892 245.939243 
L 132.142144 248.282998 
L 134.93587 250.618721 
L 137.817769 252.648061 
L 140.790623 254.326629 
L 143.857302 255.838872 
L 147.020769 257.265521 
L 150.284077 258.035062 
L 153.650378 257.133326 
L 157.122923 256.705703 
L 160.705064 258.049201 
L 164.40026 258.046269 
L 168.21208 257.401805 
L 172.144204 256.542479 
L 176.200429 255.174353 
L 180.384672 252.923437 
L 184.700973 250.257445 
L 189.153501 247.228005 
L 193.746554 244.530774 
L 198.484567 242.564721 
L 203.372117 240.805149 
L 208.413921 238.452272 
L 213.61485 235.736737 
L 218.979924 232.696749 
L 224.514324 229.60858 
L 230.223394 226.611179 
L 236.112648 223.542147 
L 242.187771 220.422267 
L 248.454631 217.279015 
L 254.919278 214.040397 
L 261.587954 210.837762 
L 268.4671 207.72971 
L 275.563357 204.783753 
L 282.883579 201.909629 
L 290.434832 199.243572 
L 298.22441 196.732339 
L 306.259833 194.604857 
L 314.548861 193.178336 
L 323.099498 191.505065 
L 331.92 190.219785 
" clip-path="url(#p61241e850b)" style="fill: none; stroke: #d95926; stroke-width: 1.5; stroke-linecap: square"/>
   </g>
   <g id="patch_8">
    <path d="M 44.2 266.358125 
L 44.2 150.529063 
" style="fill: none; stroke: #898781; stroke-width: 0.8; stroke-linejoin: miter; stroke-linecap: square"/>
   </g>
   <g id="patch_9">
    <path d="M 331.92 266.358125 
L 331.92 150.529063 
" style="fill: none; stroke: #898781; stroke-width: 0.8; stroke-linejoin: miter; stroke-linecap: square"/>
   </g>
   <g id="patch_10">
    <path d="M 44.2 266.358125 
L 331.92 266.358125 
" style="fill: none; stroke: #898781; stroke-width: 0.8; stroke-linejoin: miter; stroke-linecap: square"/>
   </g>
   <g id="patch_11">
    <path d="M 44.2 150.529063 
L 331.92 150.529063 
" style="fill: none; stroke: #898781; stroke-width: 0.8; stroke-linejoin: miter; stroke-linecap: square"/>
   </g>
   <g id="legend_2">
    <g id="line2d_50">
     <path d="M 279.041563 159.697969 
L 286.041563 159.697969 
L 293.041563 159.697969 
" style="fill: none; stroke: #d95926; stroke-width: 1.5; stroke-linecap: square"/>
    </g>
    <g id="text_23">
     <text style="font-size: 7px; font-family: 'DejaVu Sans', 'Bitstream Vera Sans', 'Computer Modern Sans Serif', 'Lucida Grande', 'Verdana', 'Geneva', 'Lucid', 'Arial', 'Helvetica', 'Avant Garde', sans-serif; text-anchor: start; fill: #898781" x="298.641563" y="162.147969" transform="rotate(-0 298.641563 162.147969)">Q(Zdiff)</text>
    </g>
   </g>
  </g>
 </g>
 <defs>
  <clipPath id="p55f981faa4">
   <rect x="44.2" y="22.56" width="287.72" height="115.829062"/>
  </clipPath>
  <clipPath id="p61241e850b">
   <rect x="44.2" y="150.529063" width="287.72" height="115.829062"/>
  </clipPath>
 </defs>
</svg>
